<mxfile host="Electron" modified="2024-05-14T14:12:20.949Z" agent="Mozilla/5.0 (Macintosh; Intel Mac OS X 10_15_7) AppleWebKit/537.36 (KHTML, like Gecko) draw.io/24.4.0 Chrome/120.0.6099.109 Electron/28.1.0 Safari/537.36" etag="9pE1sRZwr1qdo6ze7KwP" version="24.4.0" type="device">
  <diagram name="PÃ¡gina-1" id="0MKF2V8cCjxxOLZMF5Yj">
    <mxGraphModel dx="616" dy="396" grid="1" gridSize="10" guides="1" tooltips="1" connect="1" arrows="1" fold="1" page="1" pageScale="1" pageWidth="827" pageHeight="1169" math="1" shadow="0">
      <root>
        <mxCell id="0" />
        <mxCell id="1" parent="0" />
        <mxCell id="ZIrg0v3uuuXiQa7l0zcL-1" value="" style="group;fontColor=#999999;" vertex="1" connectable="0" parent="1">
          <mxGeometry x="180" y="140" width="520" height="247" as="geometry" />
        </mxCell>
        <mxCell id="MuVFD5ngkbPdT-urxYMW-1" value="" style="endArrow=classic;html=1;rounded=0;strokeColor=#999999;" parent="ZIrg0v3uuuXiQa7l0zcL-1" edge="1">
          <mxGeometry width="50" height="50" relative="1" as="geometry">
            <mxPoint y="140" as="sourcePoint" />
            <mxPoint x="460" y="140" as="targetPoint" />
          </mxGeometry>
        </mxCell>
        <mxCell id="MuVFD5ngkbPdT-urxYMW-10" value="&lt;font style=&quot;font-size: 14px;&quot;&gt;$$Re\{z\}$$&lt;/font&gt;" style="text;html=1;align=center;verticalAlign=middle;whiteSpace=wrap;rounded=0;fontColor=#999999;" parent="ZIrg0v3uuuXiQa7l0zcL-1" vertex="1">
          <mxGeometry x="460" y="120" width="60" height="40" as="geometry" />
        </mxCell>
        <mxCell id="MuVFD5ngkbPdT-urxYMW-12" value="&lt;font style=&quot;font-size: 12px;&quot;&gt;$$Im\{z\}$$&lt;/font&gt;" style="text;html=1;align=center;verticalAlign=middle;whiteSpace=wrap;rounded=0;fontSize=12;fontColor=#999999;" parent="ZIrg0v3uuuXiQa7l0zcL-1" vertex="1">
          <mxGeometry x="250" width="80" height="40" as="geometry" />
        </mxCell>
        <mxCell id="MuVFD5ngkbPdT-urxYMW-13" value="" style="endArrow=classic;html=1;rounded=0;fontColor=#666666;strokeColor=#999999;" parent="ZIrg0v3uuuXiQa7l0zcL-1" edge="1">
          <mxGeometry width="50" height="50" relative="1" as="geometry">
            <mxPoint x="260" y="247" as="sourcePoint" />
            <mxPoint x="259" y="20" as="targetPoint" />
          </mxGeometry>
        </mxCell>
        <mxCell id="MuVFD5ngkbPdT-urxYMW-16" value="" style="ellipse;whiteSpace=wrap;html=1;fillColor=none;dashed=1;strokeColor=#999999;" parent="ZIrg0v3uuuXiQa7l0zcL-1" vertex="1">
          <mxGeometry x="75" y="60" width="360" height="160" as="geometry" />
        </mxCell>
        <mxCell id="MuVFD5ngkbPdT-urxYMW-17" value="$$-1$$" style="text;html=1;align=center;verticalAlign=middle;whiteSpace=wrap;rounded=0;fontColor=#999999;" parent="ZIrg0v3uuuXiQa7l0zcL-1" vertex="1">
          <mxGeometry x="33" y="135" width="60" height="30" as="geometry" />
        </mxCell>
        <mxCell id="MuVFD5ngkbPdT-urxYMW-18" value="$$-1$$" style="text;html=1;align=center;verticalAlign=middle;whiteSpace=wrap;rounded=0;fontColor=#999999;" parent="ZIrg0v3uuuXiQa7l0zcL-1" vertex="1">
          <mxGeometry x="218" y="216" width="60" height="30" as="geometry" />
        </mxCell>
        <mxCell id="MuVFD5ngkbPdT-urxYMW-20" value="$$1$$" style="text;html=1;align=center;verticalAlign=middle;whiteSpace=wrap;rounded=0;fontColor=#999999;" parent="ZIrg0v3uuuXiQa7l0zcL-1" vertex="1">
          <mxGeometry x="411" y="135" width="60" height="30" as="geometry" />
        </mxCell>
        <mxCell id="MuVFD5ngkbPdT-urxYMW-21" value="$$1$$" style="text;html=1;align=center;verticalAlign=middle;whiteSpace=wrap;rounded=0;fontColor=#999999;" parent="ZIrg0v3uuuXiQa7l0zcL-1" vertex="1">
          <mxGeometry x="220" y="33" width="60" height="30" as="geometry" />
        </mxCell>
        <mxCell id="MuVFD5ngkbPdT-urxYMW-23" value="X" style="text;html=1;align=center;verticalAlign=middle;whiteSpace=wrap;rounded=0;fontSize=17;fontColor=#007FFF;" parent="ZIrg0v3uuuXiQa7l0zcL-1" vertex="1">
          <mxGeometry x="380" y="125" width="40" height="30" as="geometry" />
        </mxCell>
        <mxCell id="MuVFD5ngkbPdT-urxYMW-24" value="$$0,9048$$" style="text;html=1;align=center;verticalAlign=middle;whiteSpace=wrap;rounded=0;rotation=300;" parent="ZIrg0v3uuuXiQa7l0zcL-1" vertex="1">
          <mxGeometry x="379" y="93" width="60" height="30" as="geometry" />
        </mxCell>
        <mxCell id="MuVFD5ngkbPdT-urxYMW-25" value="$$0,8187$$" style="text;html=1;align=center;verticalAlign=middle;whiteSpace=wrap;rounded=0;rotation=300;" parent="ZIrg0v3uuuXiQa7l0zcL-1" vertex="1">
          <mxGeometry x="339" y="93" width="60" height="30" as="geometry" />
        </mxCell>
        <mxCell id="MuVFD5ngkbPdT-urxYMW-26" value="&lt;p style=&quot;line-height: 0%;&quot;&gt;$$0,4493$$&lt;/p&gt;" style="text;html=1;align=center;verticalAlign=middle;whiteSpace=wrap;rounded=0;rotation=300;" parent="ZIrg0v3uuuXiQa7l0zcL-1" vertex="1">
          <mxGeometry x="300" y="93" width="60" height="30" as="geometry" />
        </mxCell>
        <mxCell id="MuVFD5ngkbPdT-urxYMW-27" value="$$-0,2013$$" style="text;html=1;align=center;verticalAlign=middle;whiteSpace=wrap;rounded=0;rotation=300;" parent="ZIrg0v3uuuXiQa7l0zcL-1" vertex="1">
          <mxGeometry x="208" y="90" width="60" height="30" as="geometry" />
        </mxCell>
        <mxCell id="MuVFD5ngkbPdT-urxYMW-28" value="$$-2,867$$" style="text;html=1;align=center;verticalAlign=middle;whiteSpace=wrap;rounded=0;rotation=300;" parent="ZIrg0v3uuuXiQa7l0zcL-1" vertex="1">
          <mxGeometry x="15" y="90" width="60" height="30" as="geometry" />
        </mxCell>
        <mxCell id="MuVFD5ngkbPdT-urxYMW-29" value="X" style="text;html=1;align=center;verticalAlign=middle;whiteSpace=wrap;rounded=0;fontSize=17;fontColor=#007FFF;" parent="ZIrg0v3uuuXiQa7l0zcL-1" vertex="1">
          <mxGeometry x="340" y="125" width="40" height="30" as="geometry" />
        </mxCell>
        <mxCell id="MuVFD5ngkbPdT-urxYMW-30" value="X" style="text;html=1;align=center;verticalAlign=middle;whiteSpace=wrap;rounded=0;fontSize=17;fontColor=#007FFF;" parent="ZIrg0v3uuuXiQa7l0zcL-1" vertex="1">
          <mxGeometry x="300" y="125" width="40" height="30" as="geometry" />
        </mxCell>
        <mxCell id="MuVFD5ngkbPdT-urxYMW-31" value="O" style="text;html=1;align=center;verticalAlign=middle;whiteSpace=wrap;rounded=0;fontSize=17;fontColor=#007FFF;" parent="ZIrg0v3uuuXiQa7l0zcL-1" vertex="1">
          <mxGeometry x="210" y="125" width="40" height="30" as="geometry" />
        </mxCell>
        <mxCell id="MuVFD5ngkbPdT-urxYMW-33" value="" style="endArrow=classic;html=1;rounded=0;" parent="ZIrg0v3uuuXiQa7l0zcL-1" target="MuVFD5ngkbPdT-urxYMW-32" edge="1">
          <mxGeometry width="50" height="50" relative="1" as="geometry">
            <mxPoint x="20" y="140" as="sourcePoint" />
            <mxPoint x="460" y="140" as="targetPoint" />
          </mxGeometry>
        </mxCell>
        <mxCell id="MuVFD5ngkbPdT-urxYMW-32" value="O" style="text;html=1;align=center;verticalAlign=middle;whiteSpace=wrap;rounded=0;fontSize=17;fontColor=#007FFF;" parent="ZIrg0v3uuuXiQa7l0zcL-1" vertex="1">
          <mxGeometry x="20" y="125" width="40" height="30" as="geometry" />
        </mxCell>
        <mxCell id="taDs3Y85bL93rzkYal_a-1" value="O" style="text;html=1;align=center;verticalAlign=middle;whiteSpace=wrap;rounded=0;fontSize=17;fontColor=#FF0080;" parent="ZIrg0v3uuuXiQa7l0zcL-1" vertex="1">
          <mxGeometry x="400" y="125" width="40" height="30" as="geometry" />
        </mxCell>
        <mxCell id="taDs3Y85bL93rzkYal_a-2" value="O" style="text;html=1;align=center;verticalAlign=middle;whiteSpace=wrap;rounded=0;fontSize=17;fontColor=#FF0080;" parent="ZIrg0v3uuuXiQa7l0zcL-1" vertex="1">
          <mxGeometry x="360" y="125" width="40" height="30" as="geometry" />
        </mxCell>
        <mxCell id="taDs3Y85bL93rzkYal_a-3" value="O" style="text;html=1;align=center;verticalAlign=middle;whiteSpace=wrap;rounded=0;fontSize=17;fontColor=#FF0080;" parent="ZIrg0v3uuuXiQa7l0zcL-1" vertex="1">
          <mxGeometry x="320" y="125" width="40" height="30" as="geometry" />
        </mxCell>
        <mxCell id="taDs3Y85bL93rzkYal_a-4" value="a" style="text;html=1;align=center;verticalAlign=middle;whiteSpace=wrap;rounded=0;fontColor=#FF0080;" parent="ZIrg0v3uuuXiQa7l0zcL-1" vertex="1">
          <mxGeometry x="400" y="140" width="40" height="30" as="geometry" />
        </mxCell>
        <mxCell id="taDs3Y85bL93rzkYal_a-5" value="b" style="text;html=1;align=center;verticalAlign=middle;whiteSpace=wrap;rounded=0;fontColor=#FF0080;" parent="ZIrg0v3uuuXiQa7l0zcL-1" vertex="1">
          <mxGeometry x="360" y="140" width="40" height="30" as="geometry" />
        </mxCell>
        <mxCell id="taDs3Y85bL93rzkYal_a-6" value="c" style="text;html=1;align=center;verticalAlign=middle;whiteSpace=wrap;rounded=0;fontColor=#FF0080;" parent="ZIrg0v3uuuXiQa7l0zcL-1" vertex="1">
          <mxGeometry x="320" y="140" width="40" height="30" as="geometry" />
        </mxCell>
        <mxCell id="taDs3Y85bL93rzkYal_a-7" value="X" style="text;html=1;align=center;verticalAlign=middle;whiteSpace=wrap;rounded=0;fontSize=17;fontColor=#FF0080;" parent="ZIrg0v3uuuXiQa7l0zcL-1" vertex="1">
          <mxGeometry x="240" y="125" width="40" height="30" as="geometry" />
        </mxCell>
      </root>
    </mxGraphModel>
  </diagram>
</mxfile>
